<?xml version="1.0" encoding="UTF-8"?>
<svg width="16px" height="16px" viewBox="0 0 16 16" version="1.1" xmlns="http://www.w3.org/2000/svg" xmlns:xlink="http://www.w3.org/1999/xlink">
    <title>画板</title>
    <g id="画板" stroke="none" stroke-width="1" fill="none" fill-rule="evenodd">
        <path d="M12.0961941,2.90380592 C14.3939671,5.20157897 14.6117904,8.79166714 12.7496638,11.3344568 L15.631728,14.2175144 L14.2175144,15.631728 L11.3344568,12.7496638 C8.79166714,14.6117904 5.20157897,14.3939671 2.90380592,12.0961941 C0.365398026,9.55778618 0.365398026,5.44221382 2.90380592,2.90380592 C5.44221382,0.365398026 9.55778618,0.365398026 12.0961941,2.90380592 Z M4.31801948,4.31801948 C2.56066017,6.0753788 2.56066017,8.9246212 4.31801948,10.6819805 C6.0753788,12.4393398 8.9246212,12.4393398 10.6819805,10.6819805 C12.4393398,8.9246212 12.4393398,6.0753788 10.6819805,4.31801948 C8.9246212,2.56066017 6.0753788,2.56066017 4.31801948,4.31801948 Z" id="形状结合" fill="#0052D9" fill-rule="nonzero"></path>
    </g>
</svg>